# xmcd
#
# Track frame offsets: 
#        151
#        11952
#        23674
#        36427
#        48860
#        57972
#        71956
#        84508
#        97425
#        109772
#        120254
#        134307
#        145612
#        156789
#        168213
#        178679
#
# Disc length: 2519 seconds
#
# Revision: 0
# Processed by: cddbd v1.5.2PL0 Copyright (c) Steve Scherf et al.
# Submitted via: ExactAudioCopy v0.90b4
#
DISCID=d909d510
DTITLE=Ray Charles - The Best Of
DYEAR=1900
DGENRE=Salon
TTITLE0=How Long
TTITLE1=Ray Charles Blues
TTITLE2=Blues Before Sunrise
TTITLE3=Honey Honey
TTITLE4=All To Myself Alone
TTITLE5=I'm Going Down The River
TTITLE6=Rockin' Chair Blues
TTITLE7=You Always Miss The Water
TTITLE8=I've Had My Fun (Going Down Slow)
TTITLE9=Ain't That Fine
TTITLE10=Someday
TTITLE11=Let's Have A Ball (Here Am I)
TTITLE12=A Sentimental Blues
TTITLE13=Confession Blues
TTITLE14=Sitting On Top Of The World (Now She's Gone)
TTITLE15=Hey Now
EXTD=
EXTT0=
EXTT1=
EXTT2=
EXTT3=
EXTT4=
EXTT5=
EXTT6=
EXTT7=
EXTT8=
EXTT9=
EXTT10=
EXTT11=
EXTT12=
EXTT13=
EXTT14=
EXTT15=
PLAYORDER=
